<?xml version="1.0" standalone="no"?>
<!DOCTYPE svg PUBLIC "-//W3C//DTD SVG 20010904//EN"
 "http://www.w3.org/TR/2001/REC-SVG-20010904/DTD/svg10.dtd">
<svg version="1.0" xmlns="http://www.w3.org/2000/svg"
 width="256.000000pt" height="256.000000pt" viewBox="0 0 256.000000 256.000000"
 preserveAspectRatio="xMidYMid meet">
<metadata>
Created by potrace 1.11, written by Peter Selinger 2001-2013
</metadata>
<g transform="translate(0.000000,256.000000) scale(0.100000,-0.100000)"
fill="#000000" stroke="none">
<path d="M1130 2553 c-57 -6 -254 -55 -267 -65 -7 -6 -13 -8 -13 -4 0 4 -19
-3 -42 -15 -24 -12 -45 -22 -48 -22 -8 0 -74 -31 -80 -38 -3 -3 -13 -9 -23
-12 -23 -9 -161 -103 -201 -137 -119 -102 -234 -245 -303 -376 -42 -79 -96
-213 -108 -266 -2 -13 -12 -54 -21 -93 -24 -103 -26 -363 -2 -475 23 -111 34
-151 65 -230 155 -396 485 -685 898 -786 90 -22 167 -29 305 -29 143 1 215 9
315 37 22 6 45 13 50 14 79 20 291 123 350 168 174 135 241 203 335 341 107
158 180 347 208 538 14 97 7 336 -12 422 -19 87 -21 93 -28 115 -3 8 -13 40
-23 69 -36 107 -157 329 -186 339 -5 2 -9 8 -9 13 0 18 -133 156 -205 214
-161 129 -360 221 -563 262 -73 14 -317 24 -392 16z"/>
</g>
</svg>
