<?xml version="1.0"?><svg width="893.40771" height="613.5849" xmlns="http://www.w3.org/2000/svg" xmlns:xlink="http://www.w3.org/1999/xlink">

 <metadata id="metadata7">image/svg+xml</metadata>
 <g>
  <title>Layer 1</title>
  <g id="layer2">
   <path fill="#ff0000" stroke="#000000" stroke-width="1px" id="path2891" d="m152.835938,273.840363l51.859039,-12.964752l-91.833725,-108.039673l128.56723,27.009918l0,-22.688324l47.53746,20.527527l-1.080414,-89.672928l66.984589,59.421829l34.572723,-129.64761l43.215851,139.371181l25.929535,-71.306198l22.688324,62.663025l44.296265,-148.014349l18.36676,137.210378l47.537415,-31.331512l3.241211,54.019836l66.984558,-60.502213l0,75.627777l142.612427,-78.86898l-84.270996,116.682854l51.85907,-2.160782l-21.607971,58.3414l142.612366,24.849121l-152.335938,44.296265l49.698303,50.778656l-69.145447,23.768707c0,0 61.582642,115.602509 57.261047,115.602509c-4.321594,0 -91.83374,-42.135529 -91.83374,-42.135529l22.688354,126.406464l-88.592529,-126.406464l-9.723572,52.939484l-45.376648,-46.457092l-10.803955,92.914124l-46.457062,-83.190552l-23.768738,32.411926l-28.090302,-39.974731l-62.663025,82.110168l-10.803955,-73.46698l-81.029785,27.009949l5.402008,-60.502228c0,0 -101.557297,92.914154 -100.476898,86.431732c1.080399,-6.482361 27.009918,-132.888794 27.009918,-132.888794l-81.029755,20.527527c0,0 62.66301,-70.2258 57.261032,-72.386566c-5.401993,-2.160828 -209.596973,-22.688354 -209.596973,-22.688354c0,0 199.873402,-45.376648 195.551807,-47.537445c-4.321594,-2.160797 -46.457062,-25.929535 -43.215866,-28.090302l0,0z"/>
  </g>
  <g opacity="0.709677" display="none" id="layer1">
   <image xlink:href="file:///home/gaston/GNU/tableau-bang.jpg" width="843.56616" height="565.18933" id="image2886" x="74.721355" y="50.338319"/>
  </g>
  <g display="inline" id="layer3">
   <path fill="#000000" stroke="#ffffff" stroke-width="1px" id="path3687" d="m291.738586,208.124985c-18.468475,-0.079895 -42.008362,4.130096 -71.375,14.40625l56.71875,216.624985c55.724304,-26.983612 94.987305,-101.199585 28.625,-136.15625c50.700256,-13.914612 66.06134,-94.528549 -13.96875,-94.874985zm-31.40625,40.3125l41.0625,0c5.766724,6.288895 7.57428,14.72197 -1.4375,26.062485c-4.190399,5.273224 -6.699524,4.231415 -12.0625,7.4375c-24.515869,14.656097 -34.504578,-28.738541 -27.5625,-33.499985zm33.1875,95.843735c28.012238,-1.058655 28.817932,41.499146 -3.15625,41.09375l-12.75,-36.6875c6.01651,-2.888519 11.322449,-4.233032 15.90625,-4.40625z"/>
   <path fill="#000000" stroke="#ffffff" stroke-width="1px" id="path3713" d="m386.738586,228.468735c-17.193054,71.016006 -27.090027,147.51384 -38.90625,222.562485l18.9375,8.625c8.185699,3.742035 10.992126,-14.220001 14.03125,-21.0625c1.951447,-6.180756 6.565125,-7.036041 11.34375,-7.5625l9.71875,1.625c6.013428,1.684326 10.541992,1.355591 13.5,14.0625l5.40625,21.0625l28.09375,0.53125c0.353149,-5.083008 1.141693,-10.132935 0.625,-15.09375c-7.687836,-73.812653 -31.335144,-143.94632 -44.90625,-216.656235l-17.84375,-8.09375zm9.375,122.093735c3.366364,-0.082611 6.750244,3.70108 7.375,11.875c0.169739,2.220825 5.593323,28.494843 7.03125,30.78125c3.215179,5.112366 -0.088013,10.8125 -3.25,10.8125l-13.5,0c-10.847992,0 -7.31131,-6.15033 -7.03125,-10.28125l2.15625,-31.84375c0.495148,-7.303467 3.852386,-11.261169 7.21875,-11.34375z"/>
   <path fill="#000000" stroke="#ffffff" stroke-width="1px" id="path3719" d="m430.497894,190.649826l57.261047,224.722488l22.148102,3.241211c-0.697845,-3.605652 9.948425,-0.188751 4.929016,-14.058167c-2.64978,-34.657074 -16.384399,-78.551514 -27.077118,-119.911041l57.261017,121.004456c0,0 22.284058,9.313446 27.009888,6.482361c7.07312,-4.237213 13.78009,-214.882462 12.964783,-214.998932c-7.686218,-1.811539 -12.131226,-5.168182 -23.058594,-5.565872l-8.272888,8.266861l-2.160828,130.187805l-76.70816,-140.451584c-15.132904,-1.477249 -30.537903,-4.314972 -44.296265,1.080399l0,0.000015z"/>
   <path fill="#000000" stroke="#ffffff" stroke-width="1px" id="path3721" d="m682.109558,302.933624c9.512024,-3.160645 22.655945,-0.268097 28.266357,-9.931427c10.415405,-28.16745 -66.884155,-118.401337 -103.897949,-9.16748c-37.013855,109.233917 45.414795,228.893616 83.653137,122.232941c6.295349,-17.560089 10.313416,-55.004822 10.313416,-55.004822l-42.399536,-0.381958l-2.29187,16.425049c5.545288,2.491425 8.596985,3.015198 12.223267,12.223297c0.857727,60.387146 -51.849182,30.66803 -41.778931,-56.921692c5.477356,-47.640991 47.545593,-84.693039 55.912109,-19.473907z"/>
  </g>
 </g>
</svg>